<?xml version="1.0" standalone="no"?>
<!DOCTYPE svg PUBLIC "-//W3C//DTD SVG 20010904//EN"
 "http://www.w3.org/TR/2001/REC-SVG-20010904/DTD/svg10.dtd">
<svg version="1.0" xmlns="http://www.w3.org/2000/svg"
 width="798.000000pt" height="798.000000pt" viewBox="0 0 798.000000 798.000000"
 preserveAspectRatio="xMidYMid meet">

<g transform="translate(0.000000,798.000000) scale(0.100000,-0.100000)"
fill="#000000" stroke="none">
<path d="M6810 7162 c-68 -21 -329 -170 -440 -251 l-44 -32 -38 41 c-48 51
-72 44 -81 -25 -8 -55 -42 -125 -62 -125 -8 0 -24 22 -36 49 -25 60 -50 84
-81 79 -35 -5 -47 -44 -54 -174 -7 -118 -20 -167 -51 -178 -16 -6 -36 32 -52
98 -37 149 -98 189 -147 95 -22 -44 -13 -173 22 -295 4 -15 -4 -29 -31 -52
-19 -18 -39 -32 -43 -32 -4 0 -19 37 -34 83 -42 132 -79 207 -107 214 -36 9
-54 -8 -73 -68 -24 -77 -22 -139 8 -260 15 -60 24 -117 21 -130 -4 -13 -24
-36 -46 -52 l-39 -27 -15 42 c-9 24 -32 96 -52 160 -57 183 -92 211 -140 111
-24 -52 -27 -66 -22 -128 3 -38 20 -124 36 -190 17 -66 31 -126 31 -132 0 -17
-69 -93 -84 -93 -6 0 -23 37 -37 83 -68 212 -119 330 -156 354 -52 35 -105
-78 -105 -227 -1 -103 18 -169 88 -314 19 -38 34 -76 34 -83 0 -17 -76 -119
-94 -126 -9 -4 -20 10 -31 41 -9 26 -20 56 -25 67 -36 88 -64 165 -92 254 -47
155 -102 206 -157 147 -47 -50 -65 -218 -39 -350 8 -37 41 -117 85 -204 40
-79 73 -149 73 -156 0 -21 -61 -106 -76 -106 -7 0 -21 17 -29 38 -9 20 -57
126 -108 236 -119 257 -172 321 -233 281 -46 -30 -64 -88 -64 -206 0 -146 16
-180 197 -416 51 -67 93 -127 93 -133 0 -23 -93 -150 -110 -150 -8 0 -170 320
-191 375 -34 93 -85 179 -134 228 -31 33 -61 54 -69 51 -19 -7 -56 -152 -63
-248 -5 -69 -2 -96 16 -157 40 -131 163 -333 252 -413 l48 -43 -47 -92 c-31
-59 -53 -91 -64 -91 -9 0 -33 27 -55 63 -35 55 -83 149 -83 161 0 3 -18 44
-40 91 -22 47 -40 90 -40 94 0 19 -52 112 -89 159 -47 59 -114 112 -143 112
-47 0 -84 -152 -76 -320 3 -88 7 -101 46 -178 53 -105 133 -214 239 -324 95
-99 94 -90 33 -196 -38 -67 -56 -80 -71 -52 -128 229 -331 542 -389 601 -54
55 -105 79 -131 63 -21 -13 -47 -89 -59 -175 -22 -149 14 -269 135 -449 35
-52 114 -154 174 -227 61 -72 111 -137 111 -143 0 -7 -9 -29 -19 -49 -11 -20
-28 -57 -38 -83 -10 -27 -22 -46 -28 -45 -5 2 -39 47 -75 99 -220 324 -460
588 -533 588 -41 0 -57 -10 -77 -51 -17 -32 -20 -59 -20 -158 0 -109 3 -129
34 -223 67 -204 205 -383 416 -541 52 -39 99 -74 104 -78 6 -5 3 -24 -6 -46
-9 -21 -28 -68 -43 -105 -15 -38 -33 -68 -39 -68 -7 0 -55 46 -107 102 -52 56
-179 188 -284 294 -171 173 -198 196 -264 228 -87 42 -126 42 -156 2 -40 -55
-21 -250 41 -415 28 -73 75 -139 161 -223 111 -109 193 -160 416 -262 42 -19
77 -39 77 -44 0 -5 -18 -65 -41 -133 -114 -347 -202 -710 -268 -1104 -23 -139
-43 -347 -34 -356 11 -11 84 -31 198 -54 44 -9 98 -20 120 -25 65 -15 65 -15
65 239 0 288 19 484 85 871 28 162 103 421 124 428 6 2 42 -8 79 -23 198 -80
434 -125 654 -125 133 0 242 39 330 119 55 49 78 87 78 128 0 33 -8 46 -35 60
-18 10 -229 64 -295 76 -14 3 -68 14 -120 25 -169 35 -261 44 -410 40 -80 -2
-152 -5 -160 -8 -24 -8 -15 62 22 175 38 116 24 112 178 56 226 -82 431 -124
620 -125 143 -1 198 9 280 50 59 29 142 109 138 132 -7 39 -118 78 -423 146
-33 8 -100 23 -150 35 -157 35 -257 50 -378 57 -88 4 -120 10 -124 20 -6 17
106 244 124 251 7 3 59 -17 115 -45 145 -70 199 -87 423 -134 35 -7 133 -12
235 -12 199 0 249 11 317 69 52 44 59 70 28 99 -33 31 -69 45 -290 115 -305
96 -439 129 -575 138 -125 9 -126 9 -83 91 59 110 102 172 118 172 9 0 49 -22
90 -50 41 -28 78 -50 82 -50 5 0 47 -16 93 -36 47 -20 99 -41 115 -46 225 -73
373 -76 513 -11 53 25 122 84 122 105 0 24 -73 77 -147 107 -43 18 -87 36 -98
41 -23 10 -83 33 -175 67 -126 47 -202 62 -347 69 -164 8 -164 8 -108 85 19
27 35 52 35 55 0 6 61 95 81 117 4 5 42 -7 85 -26 94 -42 213 -95 236 -107 26
-14 196 -57 276 -70 156 -26 342 32 342 105 0 30 -70 70 -290 167 -25 11 -99
38 -164 59 -103 34 -136 40 -243 46 -90 4 -123 10 -123 19 0 15 109 177 144
216 l25 27 203 -102 c112 -55 212 -104 223 -109 45 -17 145 -38 183 -38 83 0
192 55 192 97 0 64 -330 226 -588 288 -41 10 -76 24 -79 31 -6 17 50 94 116
159 38 37 55 47 65 40 126 -91 293 -182 385 -209 105 -31 276 -8 308 41 15 23
15 26 -22 63 -66 67 -448 240 -533 240 -45 0 -35 28 40 116 99 118 99 118 144
66 45 -53 143 -124 220 -159 48 -21 75 -26 142 -27 89 -1 102 6 102 53 0 16
-16 39 -46 68 -44 41 -81 63 -239 148 -118 63 -114 56 -65 109 24 25 49 46 57
46 8 0 41 -18 74 -41 99 -67 176 -99 239 -99 79 0 105 16 105 65 0 38 -2 40
-91 99 -50 34 -104 67 -120 75 -54 25 -58 27 -61 38 -3 9 98 83 114 83 4 0 48
-21 99 -46 76 -38 105 -46 166 -51 82 -6 97 3 79 50 -10 25 -90 119 -141 164
-40 36 -36 57 16 79 34 14 37 14 82 -14 76 -45 125 -66 159 -65 43 1 53 9 53
43 0 22 -16 44 -72 99 -69 69 -70 72 -54 90 44 48 109 57 173 23 12 -7 37 -12
55 -12 67 0 77 46 23 110 -19 23 -35 45 -35 50 0 4 9 19 21 34 16 20 29 26 61
26 37 0 47 6 97 58 221 227 271 281 271 294 0 18 -18 27 -40 20z"/>
</g>
</svg>
